<?xml version="1.0" encoding="UTF-8" standalone="no"?>
<!DOCTYPE svg  PUBLIC '-//W3C//DTD SVG 1.1//EN'  'http://www.w3.org/Graphics/SVG/1.1/DTD/svg11.dtd'>
<svg xmlns="http://www.w3.org/2000/svg">
<defs>
<font id="NeueHaasUnicaPro-Regular" horiz-adv-x="562">
<font-face underline-position="-75" font-weight="400" descent="-200" panose-1="2 11 5 4 3 2 6 2 2 3" units-per-em="1000" unicode-range="U+0020-25CA" bbox="-155 -220 984 953" font-variant="small-caps" x-height="508" underline-thickness="50" font-family="NeueHaasUnicaPro" ascent="800" cap-height="712"/>
<missing-glyph horiz-adv-x="1000"/>
<glyph glyph-name=".notdef" horiz-adv-x="1000"/>
<glyph glyph-name=".null" horiz-adv-x="0"/>
<glyph glyph-name="nonmarkingreturn" horiz-adv-x="1000"/>
<glyph glyph-name="space" horiz-adv-x="230" unicode=" "/>
<glyph glyph-name="exclam" horiz-adv-x="275" unicode="!" d="M190 0h-104v106h104v-106zM173 175h-71l-21 537h113z"/>
<glyph glyph-name="quotedbl" horiz-adv-x="372" unicode='&quot;' d="M293 449h-64l-11 263h87zM143 449h-64l-11 263h86z"/>
<glyph glyph-name="numbersign" horiz-adv-x="649" unicode="#" d="M410 420h-144l-26 -164h144zM486 420l-26 -164h118l-11 -65h-118l-30 -191h-76l30 191h-144l-30 -191h-76l30 191h-118l10 65h119l26 164h-119l10 66h119l30 188h76l-30 -188h144l30 188h76l-30 -188h118l-11 -66h-117z"/>
<glyph glyph-name="dollar" d="M312 293v-232q58 6 88 36t30 80q0 49 -28 73t-90 43zM144 509q0 -46 25 -69t81 -39v213q-106 -11 -106 -105zM520 180q0 -82 -56 -133.5t-152 -59.5v-86h-62v86q-100 8 -153.5 67.5t-54.5 165.5h89q0 -141 119 -158v248q-45 13 -73 24.5t-60 33.5t-47.5 56t-15.5 80 q0 79 52 127.5t144 55.5v77h62v-77q194 -17 194 -221h-89q0 130 -105 147v-229q41 -11 64 -19t54.5 -24.5t48 -36t29 -51.5t12.5 -73z" unicode="$"/>
<glyph glyph-name="percent" horiz-adv-x="864" unicode="%" d="M666 304q-74 0 -74 -128t74 -128t74 128t-74 128zM666 366q74 0 113.5 -49.5t39.5 -140.5t-39.5 -140.5t-113.5 -49.5t-113.5 49.5t-39.5 140.5t39.5 140.5t113.5 49.5zM198 626q-74 0 -74 -128t74 -128t74 128t-74 128zM198 688q74 0 113.5 -49.5t39.5 -140.5 t-39.5 -140.5t-113.5 -49.5t-113.5 49.5t-39.5 140.5t39.5 140.5t113.5 49.5zM277 -30h-68l378 734h68z"/>
<glyph glyph-name="ampersand" horiz-adv-x="734" unicode="&amp;" d="M308 64q94 0 163 72l-207 210q-64 -33 -89.5 -68.5t-25.5 -84.5q0 -56 43.5 -92.5t115.5 -36.5zM307 650q-42 0 -66 -22.5t-24 -62.5q0 -32 15.5 -58.5t61.5 -72.5q58 31 80 62.5t22 69.5t-24 61t-65 23zM606 0l-79 80q-87 -95 -225 -95q-113 0 -180.5 56.5t-67.5 147.5 q0 137 158 213q-48 50 -65 84.5t-17 81.5q0 70 49 114t128 44q80 0 127.5 -43t47.5 -112q0 -60 -30.5 -103t-104.5 -84l176 -177q44 77 44 192h90q-2 -151 -72 -254l144 -145h-123z"/>
<glyph glyph-name="quotesingle" horiz-adv-x="222" unicode="&apos;" d="M143 449h-64l-11 263h86z"/>
<glyph glyph-name="parenleft" horiz-adv-x="292" unicode="(" d="M186 741h76q-60 -110 -87.5 -215t-27.5 -229q0 -123 27.5 -228.5t87.5 -215.5h-76q-135 200 -135 444q0 246 135 444z"/>
<glyph glyph-name="parenright" horiz-adv-x="292" unicode=")" d="M30 741h77q135 -200 135 -444q0 -242 -135 -444h-77q60 110 87.5 215.5t27.5 228.5q0 124 -27.5 229t-87.5 215z"/>
<glyph glyph-name="asterisk" horiz-adv-x="407" unicode="*" d="M227 575l124 57l25 -76l-133 -24l91 -99l-64 -48l-66 121l-66 -121l-65 48l91 99l-133 24l25 76l124 -57l-16 137h79z"/>
<glyph glyph-name="plus" horiz-adv-x="566" unicode="+" d="M319 353h176v-73h-176v-175h-72v175h-176v73h176v176h72v-176z"/>
<glyph glyph-name="comma" horiz-adv-x="226" unicode="," d="M167 0l-52 -144h-58l38 144h-36v117h108v-117z"/>
<glyph glyph-name="hyphen" horiz-adv-x="300" unicode="-" d="M270 253h-240v78h240v-78z"/>
<glyph glyph-name="period" horiz-adv-x="226" unicode="." d="M167 0h-108v117h108v-117z"/>
<glyph glyph-name="slash" horiz-adv-x="457" unicode="/" d="M109 -89h-79l297 834h79z"/>
<glyph glyph-name="zero" d="M281 607q-72 0 -110 -69t-38 -201q0 -133 38 -202.5t110 -69.5q73 0 111 69.5t38 202.5q0 132 -38 201t-111 69zM281 688q118 0 181 -90.5t63 -260.5t-63 -260.5t-181 -90.5t-181 90.5t-63 260.5t63 260.5t181 90.5z" unicode="0"/>
<glyph glyph-name="one" d="M347 0h-91v491h-151v70q79 0 116.5 26t47.5 87h78v-674z" unicode="1"/>
<glyph glyph-name="two" d="M281 688q97 0 156 -51.5t59 -136.5q0 -43 -12.5 -77t-40.5 -62.5t-56.5 -49t-75.5 -47.5q-97 -56 -129.5 -95.5t-33.5 -89.5h364v-79h-465q-1 7 -1 20q0 101 39.5 164.5t159.5 133.5q87 51 121 86.5t34 93.5q0 49 -32.5 79.5t-87.5 30.5q-123 0 -131 -132h-94 q4 100 64.5 156t161.5 56z" unicode="2"/>
<glyph glyph-name="three" d="M277 688q102 0 161.5 -50t59.5 -134q0 -114 -117 -157v-2q66 -22 97 -62.5t31 -105.5q0 -85 -64 -138t-167 -53q-111 0 -172 57t-61 160h93q0 -67 36 -102.5t104 -35.5q61 0 99 32t38 83q0 59 -41 90.5t-119 31.5h-27v77h27q69 0 109.5 31.5t40.5 85.5q0 51 -36 82 t-96 31q-129 0 -129 -134h-93q0 100 60.5 156.5t165.5 56.5z" unicode="3"/>
<glyph glyph-name="four" d="M107 250h231v92q0 125 3 251h-2l-155 -232zM538 174h-110v-174h-91v174h-318v83l286 417h123v-424h110v-76z" unicode="4"/>
<glyph glyph-name="five" d="M478 596h-305l-20 -209h2q48 56 136 56q99 0 158.5 -60.5t59.5 -161.5q0 -107 -64.5 -171t-171.5 -64q-100 0 -159.5 52t-59.5 141h94q1 -53 35.5 -83t89.5 -30q65 0 103 40.5t38 111.5q0 69 -36.5 108t-99.5 39q-103 0 -128 -95l-91 6l37 398h382v-78z" unicode="5"/>
<glyph glyph-name="six" d="M288 364q-61 0 -98.5 -41.5t-37.5 -106.5q0 -69 36.5 -109.5t98.5 -40.5q61 0 98 41t37 109q0 66 -36.5 107t-97.5 41zM300 688q90 0 145 -49.5t63 -137.5h-94q-18 107 -117 107q-73 0 -115.5 -63t-45.5 -192h2q59 86 166 86q95 0 154 -61t59 -160q0 -104 -63.5 -168 t-166.5 -64q-116 0 -177 82t-61 243q0 183 65.5 280t185.5 97z" unicode="6"/>
<glyph glyph-name="seven" d="M509 674v-81q-172 -249 -240 -593h-101q80 357 248 594h-373v80h466z" unicode="7"/>
<glyph glyph-name="eight" d="M281 308q-63 0 -102.5 -33.5t-39.5 -86.5q0 -55 39 -88.5t103 -33.5t103 33.5t39 88.5q0 53 -39.5 86.5t-102.5 33.5zM281 609q-59 0 -95 -30t-36 -79q0 -52 35.5 -83t95.5 -31t95.5 31t35.5 83q0 49 -36 79t-95 30zM281 688q98 0 160.5 -51.5t62.5 -133.5 q0 -54 -31.5 -93t-86.5 -60v-2q63 -19 97 -61.5t34 -104.5q0 -88 -65.5 -142t-170.5 -54t-170 54t-65 142q0 62 34 104.5t96 61.5v2q-55 21 -86 60.5t-31 92.5q0 82 62.5 133.5t159.5 51.5z" unicode="8"/>
<glyph glyph-name="nine" d="M267 310q61 0 98.5 41.5t37.5 106.5q0 69 -36.5 109.5t-98.5 40.5q-61 0 -98 -41t-37 -109q0 -66 36.5 -107t97.5 -41zM255 -14q-90 0 -145 49.5t-63 137.5h94q18 -107 117 -107q73 0 115.5 63t45.5 192h-2q-59 -86 -166 -86q-95 0 -154 61t-59 160q0 104 63.5 168 t166.5 64q116 0 177 -82t61 -243q0 -183 -65.5 -280t-185.5 -97z" unicode="9"/>
<glyph glyph-name="colon" horiz-adv-x="226" unicode=":" d="M167 0h-108v117h108v-117zM167 391h-108v117h108v-117z"/>
<glyph glyph-name="semicolon" horiz-adv-x="226" unicode=";" d="M167 0l-52 -144h-58l38 144h-36v117h108v-117zM167 391h-108v117h108v-117z"/>
<glyph glyph-name="less" horiz-adv-x="566" unicode="&lt;" d="M495 460l-342 -142v-2l342 -142v-80l-424 178v90l424 178v-80z"/>
<glyph glyph-name="equal" horiz-adv-x="566" unicode="=" d="M495 197h-424v74h424v-74zM495 362h-424v74h424v-74z"/>
<glyph glyph-name="greater" horiz-adv-x="566" unicode="&gt;" d="M495 362v-90l-424 -178v80l342 142v2l-342 142v80z"/>
<glyph glyph-name="question" horiz-adv-x="516" unicode="?" d="M293 0h-104v106h104v-106zM260 726q98 0 157.5 -50t59.5 -131q0 -54 -20.5 -90.5t-85.5 -90.5q-58 -47 -74.5 -83t-16.5 -116h-78v30q0 78 19.5 119t81.5 95q50 44 65 70t15 64q0 47 -33 75t-90 28q-128 0 -135 -129h-92q5 102 64 155.5t163 53.5z"/>
<glyph glyph-name="at" horiz-adv-x="868" unicode="@" d="M433 448q-52 0 -85.5 -48.5t-33.5 -129.5q0 -60 23 -92t64 -32q49 0 82.5 49t33.5 143q0 52 -22 81t-62 29zM444 693q171 0 273 -100t102 -266q0 -122 -54 -187t-135 -65q-94 0 -111 90h-2q-43 -90 -137 -90q-69 0 -108 50t-40 144q1 111 54 180t135 69q86 0 116 -79h2 q6 39 13 69h76q-42 -196 -42 -293q0 -74 56 -74q47 0 79 47.5t32 138.5q0 137 -84 220t-225 83q-154 0 -241.5 -100.5t-87.5 -253.5q0 -149 85 -234t229 -85q128 0 220 56l30 -56q-104 -63 -250 -63q-175 0 -278 102t-103 280t107.5 297.5t288.5 119.5z"/>
<glyph glyph-name="A" horiz-adv-x="675" unicode="A" d="M465 293l-23 65l-103 290h-2l-103 -290l-24 -65h255zM495 212h-314l-78 -212h-98l270 712h125l271 -712h-99z"/>
<glyph glyph-name="B" horiz-adv-x="627" unicode="B" d="M187 324v-246h146q155 0 155 123t-168 123h-133zM187 634v-233h133q156 0 156 117q0 116 -152 116h-137zM95 712h232q119 0 179.5 -48.5t60.5 -132.5q0 -123 -118 -166v-2q64 -15 99 -58.5t35 -108.5q0 -90 -63 -143t-174 -53h-251v712z"/>
<glyph glyph-name="C" horiz-adv-x="689" unicode="C" d="M355 726q125 0 201 -71t82 -184h-95q-7 79 -57.5 125t-130.5 46q-101 0 -158.5 -76.5t-57.5 -209.5t57 -209.5t156 -76.5q79 0 131 47t63 128h96q-11 -120 -88 -189.5t-202 -69.5q-143 0 -226 99t-83 271t83.5 271t228.5 99z"/>
<glyph glyph-name="D" horiz-adv-x="723" unicode="D" d="M187 630v-548h124q133 0 203 70t70 204t-70 204t-203 70h-124zM95 712h217q177 0 273 -92.5t96 -263.5t-96 -263.5t-273 -92.5h-217v712z"/>
<glyph glyph-name="E" horiz-adv-x="618" unicode="E" d="M554 630h-367v-225h346v-81h-346v-242h378v-82h-470v712h459v-82z"/>
<glyph glyph-name="F" horiz-adv-x="573" unicode="F" d="M541 630h-354v-243h332v-82h-332v-305h-92v712h446v-82z"/>
<glyph glyph-name="G" horiz-adv-x="731" unicode="G" d="M365 726q122 0 197.5 -61.5t85.5 -166.5h-98q-12 69 -60 106.5t-125 37.5q-105 0 -165.5 -77t-60.5 -211q0 -135 58.5 -211.5t160.5 -76.5q92 0 146.5 56.5t55.5 176.5h-196v79h284v-378h-82v98h-2q-29 -51 -89 -81t-135 -30q-137 0 -217 98.5t-80 268.5 q0 173 86.5 272.5t235.5 99.5z"/>
<glyph glyph-name="H" horiz-adv-x="737" unicode="H" d="M643 0h-93v329h-363v-329h-92v712h92v-302h363v302h93v-712z"/>
<glyph glyph-name="I" horiz-adv-x="282" unicode="I" d="M187 0h-92v712h92v-712z"/>
<glyph glyph-name="J" horiz-adv-x="356" unicode="J" d="M266 712v-508q0 -209 -201 -209q-31 0 -50 6v82q27 -5 43 -5q59 0 87.5 32t28.5 106v496h92z"/>
<glyph glyph-name="K" horiz-adv-x="625" unicode="K" d="M281 373l340 -373h-123l-309 350h-2v-350h-92v712h92v-321h2l287 321h116z"/>
<glyph glyph-name="L" horiz-adv-x="561" unicode="L" d="M187 82h364v-82h-456v712h92v-630z"/>
<glyph glyph-name="M" horiz-adv-x="934" unicode="M" d="M839 0h-90v362q0 90 2 272h-2l-97 -272l-132 -362h-106l-132 362l-97 272h-2q2 -182 2 -272v-362h-90v712h148l129 -351l94 -273h2l94 273l128 351h149v-712z"/>
<glyph glyph-name="N" horiz-adv-x="755" unicode="N" d="M661 0h-136l-169 307l-172 319h-2q3 -171 3 -341v-285h-90v712h135l170 -307l172 -319h2q-3 171 -3 341v285h90v-712z"/>
<glyph glyph-name="O" horiz-adv-x="732" unicode="O" d="M366 642q-105 0 -166 -77t-61 -209t61 -209t166 -77q104 0 165.5 77.5t61.5 208.5t-61.5 208.5t-165.5 77.5zM366 726q149 0 236 -100t87 -270t-87 -270t-236 -100t-236 100t-87 270t87 270t236 100z"/>
<glyph glyph-name="P" horiz-adv-x="616" unicode="P" d="M187 632v-270h145q80 0 120.5 35.5t40.5 99.5t-40.5 99.5t-120.5 35.5h-145zM95 712h244q121 0 185 -57.5t64 -157.5t-64 -157.5t-185 -57.5h-152v-282h-92v712z"/>
<glyph glyph-name="Q" horiz-adv-x="731" unicode="Q" d="M369 67q65 0 114 32l-94 103l57 52l93 -102q55 79 55 203q0 131 -61 209t-164 78q-106 0 -168 -77.5t-62 -209.5t62 -210t168 -78zM688 356q0 -172 -87 -271l79 -87l-56 -53l-81 89q-76 -48 -175 -48q-150 0 -237.5 100t-87.5 270t87.5 270t237.5 100q148 0 234 -100 t86 -270z"/>
<glyph glyph-name="R" horiz-adv-x="640" unicode="R" d="M187 633v-255h133q80 0 118.5 36.5t38.5 97.5q0 121 -163 121h-127zM95 712h226q126 0 188 -50t62 -143q0 -68 -37 -116t-99 -62v-2q39 -12 61 -40t46 -94l73 -205h-100l-65 188q-22 64 -51.5 88t-86.5 24h-125v-300h-92v712z"/>
<glyph glyph-name="S" horiz-adv-x="609" unicode="S" d="M288 726q255 0 255 -234h-93q0 155 -163 155q-66 0 -103.5 -30t-37.5 -81q0 -53 38 -78t134 -49q48 -12 78 -21t65 -26t54 -37.5t32 -53t13 -75.5q0 -96 -69.5 -153t-185.5 -57q-126 0 -196 64t-70 186h95q0 -86 45 -128.5t127 -42.5q76 0 117.5 33t41.5 93q0 55 -38 79 t-136 49q-40 10 -66 18t-56.5 20t-49 27t-35.5 35.5t-24.5 48t-7.5 62.5q0 87 64 141.5t172 54.5z"/>
<glyph glyph-name="T" horiz-adv-x="599" unicode="T" d="M589 630h-243v-630h-93v630h-243v82h579v-82z"/>
<glyph glyph-name="U" horiz-adv-x="705" unicode="U" d="M617 712v-445q0 -137 -68 -209t-196 -72q-129 0 -196.5 71.5t-67.5 209.5v445h92v-443q0 -98 45 -148.5t127 -50.5t126.5 50.5t44.5 148.5v443h93z"/>
<glyph glyph-name="V" horiz-adv-x="624" unicode="V" d="M372 0h-120l-245 712h96l109 -317q35 -101 99 -305h2q54 174 100 305l108 317h97z"/>
<glyph glyph-name="W" horiz-adv-x="916" unicode="W" d="M740 0h-132l-75 311q-41 169 -74 319h-2q-33 -150 -74 -319l-75 -311h-132l-166 712h92l67 -288l74 -335h2q45 202 79 336l70 287h128l70 -287q34 -134 79 -336h2q31 151 74 335l67 288h92z"/>
<glyph glyph-name="X" horiz-adv-x="621" unicode="X" d="M367 365l247 -365h-110l-192 293h-2l-192 -293h-111l247 365l-233 347h108l181 -277h2l180 277h108z"/>
<glyph glyph-name="Y" horiz-adv-x="614" unicode="Y" d="M353 295v-295h-92v295l-257 417h107l87 -147l108 -188h2l108 188l88 147h106z"/>
<glyph glyph-name="Z" horiz-adv-x="566" unicode="Z" d="M529 624l-403 -541v-2h422v-81h-530v88l403 541v2h-392v81h500v-88z"/>
<glyph glyph-name="bracketleft" horiz-adv-x="297" unicode="[" d="M279 682h-118v-771h118v-59h-203v889h203v-59z"/>
<glyph glyph-name="backslash" horiz-adv-x="457" unicode="\" d="M130 745l297 -834h-79l-297 834h79z"/>
<glyph glyph-name="bracketright" horiz-adv-x="297" unicode="]" d="M221 741v-889h-203v59h118v771h-118v59h203z"/>
<glyph glyph-name="asciicircum" horiz-adv-x="449" unicode="^" d="M438 371h-82l-130 270h-2l-130 -270h-83l166 341h95z"/>
<glyph glyph-name="underscore" horiz-adv-x="500" unicode="_" d="M500 -101h-500v51h500v-51z"/>
<glyph glyph-name="grave" horiz-adv-x="299" unicode="`" d="M163 712l86 -143h-76l-123 143h113z"/>
<glyph glyph-name="a" horiz-adv-x="531" unicode="a" d="M374 217v31q-77 -6 -133 -16q-64 -10 -90.5 -30t-26.5 -58q0 -40 27.5 -63.5t76.5 -23.5q67 0 105 40q23 24 32 49.5t9 70.5zM259 522q95 0 147.5 -49.5t52.5 -147.5v-195q0 -77 12 -130h-80q-7 32 -7 74h-2q-55 -85 -176 -85q-78 0 -125 41.5t-47 107.5t43.5 104.5 t149.5 55.5q74 12 147 17v20q0 61 -30.5 90t-84.5 29t-84 -27.5t-32 -73.5h-88q4 75 57 122t147 47z"/>
<glyph glyph-name="b" horiz-adv-x="576" unicode="b" d="M300 450q-63 0 -100.5 -52.5t-37.5 -142.5t37.5 -143t100.5 -53q65 0 104 53.5t39 142.5t-39 142t-104 53zM166 438h2q21 38 62.5 60.5t92.5 22.5q97 0 154.5 -72.5t57.5 -193.5q0 -122 -58 -194.5t-155 -72.5q-51 0 -93 23t-62 63h-2v-74h-87v712h88v-274z"/>
<glyph glyph-name="c" horiz-adv-x="534" unicode="c" d="M280 522q91 0 150 -54t67 -140h-92q-5 54 -39.5 88t-86.5 34q-67 0 -106 -52.5t-39 -143.5t38.5 -143.5t106.5 -52.5q52 0 86.5 36.5t39.5 92.5h92q-8 -89 -67 -145t-150 -56q-110 0 -174.5 72t-64.5 196t64.5 196t174.5 72z"/>
<glyph glyph-name="d" horiz-adv-x="576" unicode="d" d="M276 450q-65 0 -104 -53t-39 -142t39 -142.5t104 -53.5q63 0 101 53t38 143t-38 142.5t-101 52.5zM498 0h-86v74h-2q-21 -40 -62.5 -63t-93.5 -23q-97 0 -155 72.5t-58 194.5q0 121 57.5 193.5t154.5 72.5q51 0 92.5 -22.5t62.5 -60.5h2v274h88v-712z"/>
<glyph glyph-name="e" horiz-adv-x="550" unicode="e" d="M277 454q-62 0 -101 -39.5t-46 -111.5h292q-7 73 -46 112t-99 39zM280 54q54 0 89.5 27t44.5 71h90q-14 -71 -72.5 -118.5t-151.5 -47.5q-111 0 -175 74.5t-64 200.5q0 115 63.5 188t172.5 73q85 0 143.5 -47t78.5 -130q10 -41 10 -109h-380q3 -90 44.5 -136t106.5 -46z "/>
<glyph glyph-name="f" horiz-adv-x="305" unicode="f" d="M263 647q-38 0 -56 -20t-18 -66v-53h101v-70h-101v-438h-87v438h-89v70h89v63q0 146 139 146q31 0 51 -5v-68q-9 3 -29 3z"/>
<glyph glyph-name="g" horiz-adv-x="573" unicode="g" d="M270 448q-62 0 -99.5 -50.5t-37.5 -134.5q0 -83 37.5 -133.5t99.5 -50.5q66 0 104 49.5t38 134.5q0 86 -38 135.5t-104 49.5zM256 521q100 0 152 -87h2v74h85v-477q0 -111 -57 -167.5t-165 -56.5q-97 0 -152.5 43t-57.5 118h88q2 -44 34.5 -68.5t88.5 -24.5q69 0 102 38 t33 122v55h-2q-55 -85 -151 -85q-98 0 -156.5 70.5t-58.5 187.5q0 118 58.5 188t156.5 70z"/>
<glyph glyph-name="h" horiz-adv-x="576" unicode="h" d="M166 444h2q51 75 151 75q88 0 136 -53t48 -156v-310h-88v303q0 77 -30 110.5t-87 33.5t-94.5 -41t-37.5 -115v-291h-88v712h88v-268z"/>
<glyph glyph-name="i" horiz-adv-x="244" unicode="i" d="M166 0h-88v508h88v-508zM166 613h-88v99h88v-99z"/>
<glyph glyph-name="j" horiz-adv-x="249" unicode="j" d="M171 508v-537q0 -160 -146 -160q-28 0 -47 5v70q15 -3 29 -3q39 0 57.5 21.5t18.5 74.5v529h88zM171 613h-88v99h88v-99z"/>
<glyph glyph-name="k" horiz-adv-x="500" unicode="k" d="M509 0h-116l-225 254h-2v-254h-88v712h88v-415h2l205 211h109l-228 -230z"/>
<glyph glyph-name="l" horiz-adv-x="244" unicode="l" d="M166 0h-88v712h88v-712z"/>
<glyph glyph-name="m" horiz-adv-x="863" unicode="m" d="M619 519q82 0 126.5 -52t44.5 -153v-314h-88v307q0 140 -104 140q-55 0 -87.5 -43t-32.5 -116v-288h-88v320q0 60 -27 93.5t-76 33.5q-56 0 -88.5 -44t-32.5 -121v-282h-88v508h85v-63h2q54 74 142 74q110 0 151 -96q54 96 161 96z"/>
<glyph glyph-name="n" horiz-adv-x="576" unicode="n" d="M319 519q88 0 136 -53t48 -156v-310h-88v303q0 77 -30 110.5t-87 33.5t-94.5 -41t-37.5 -115v-291h-88v508h85v-67h2q51 78 154 78z"/>
<glyph glyph-name="o" horiz-adv-x="565" unicode="o" d="M282 450q-69 0 -109 -52.5t-40 -143.5t40 -143.5t109 -52.5q70 0 110 52.5t40 143.5t-40 143.5t-110 52.5zM282 522q112 0 177 -72t65 -196t-65 -196t-177 -72t-176.5 72t-64.5 196t64.5 196t176.5 72z"/>
<glyph glyph-name="p" horiz-adv-x="576" unicode="p" d="M300 450q-63 0 -100.5 -52.5t-37.5 -142.5t37.5 -143t100.5 -53q65 0 104 53.5t39 142.5t-39 142t-104 53zM322 521q97 0 155 -72t58 -194t-57.5 -194.5t-154.5 -72.5q-51 0 -92.5 22.5t-62.5 61.5h-2v-257h-88v693h87v-73h2q20 40 62 63t93 23z"/>
<glyph glyph-name="q" horiz-adv-x="576" unicode="q" d="M276 450q-65 0 -104 -53t-39 -142t39 -142.5t104 -53.5q63 0 101 53t38 143t-38 142.5t-101 52.5zM254 521q52 0 93.5 -23t62.5 -63h2v73h86v-693h-88v257h-2q-21 -39 -62.5 -61.5t-92.5 -22.5q-97 0 -154.5 72.5t-57.5 194.5t58 194t155 72z"/>
<glyph glyph-name="r" horiz-adv-x="362" unicode="r" d="M314 513q22 0 37 -4v-79q-33 3 -35 3q-72 0 -111 -45t-39 -129v-259h-88v508h84v-78h2q50 83 150 83z"/>
<glyph glyph-name="s" horiz-adv-x="494" unicode="s" d="M239 522q94 0 146 -45t52 -128h-86q0 51 -29.5 78t-83.5 27q-46 0 -72.5 -19.5t-26.5 -52.5q0 -37 24.5 -51t97.5 -31q98 -24 132 -46q59 -40 60 -116q0 -69 -54.5 -110.5t-146.5 -41.5q-101 0 -156.5 47t-56.5 136h89q0 -54 32.5 -83.5t92.5 -29.5q50 0 80 21t30 55 q0 41 -28.5 57.5t-111.5 36.5q-88 22 -118 41q-54 34 -54 108q0 65 52.5 106t135.5 41z"/>
<glyph glyph-name="t" horiz-adv-x="320" unicode="t" d="M257 69q21 0 36 5v-72q-23 -6 -56 -6q-73 0 -105.5 34t-32.5 112v296h-88v70h88v123h88v-123h101v-70h-101v-287q0 -44 16 -63t54 -19z"/>
<glyph glyph-name="u" horiz-adv-x="576" unicode="u" d="M256 -11q-88 0 -135.5 53t-47.5 156v310h88v-303q0 -77 30 -110.5t87 -33.5q56 0 94 41.5t38 114.5v291h88v-508h-85v67h-2q-24 -36 -64.5 -57t-90.5 -21z"/>
<glyph glyph-name="v" horiz-adv-x="470" unicode="v" d="M292 0h-114l-184 508h94l72 -213q46 -137 74 -226h2l73 226l73 213h94z"/>
<glyph glyph-name="w" horiz-adv-x="770" unicode="w" d="M628 0h-126l-60 220l-56 220h-2l-56 -220l-60 -220h-126l-135 508h89l54 -212l56 -228h2q27 114 56 223l58 217h126l58 -217l56 -223h2l56 228l54 212h89z"/>
<glyph glyph-name="x" horiz-adv-x="480" unicode="x" d="M294 264l189 -264h-106l-136 203h-2l-136 -203h-105l189 264l-173 244h104l121 -182h2l122 182h104z"/>
<glyph glyph-name="y" horiz-adv-x="472" unicode="y" d="M478 508l-204 -531q-37 -96 -81.5 -131t-127.5 -35q-30 0 -46 5v74q18 -6 42 -6q50 0 75.5 23t50.5 91l-193 510h95l146 -404h2l148 404h93z"/>
<glyph glyph-name="z" horiz-adv-x="469" unicode="z" d="M433 432l-299 -358v-2h309v-72h-417v76l299 358v2h-289v72h397v-76z"/>
<glyph glyph-name="braceleft" horiz-adv-x="301" unicode="{" d="M277 741v-56q-48 -2 -68 -24.5t-20 -76.5v-163q0 -53 -19 -81t-65 -43v-3q46 -14 65 -42.5t19 -80.5v-164q0 -54 20 -76.5t68 -23.5v-56h-22q-79 0 -113.5 38.5t-34.5 123.5v155q0 44 -15 65t-52 32v61q37 11 52 32.5t15 64.5v156q0 85 34.5 123.5t113.5 38.5h22z"/>
<glyph glyph-name="bar" horiz-adv-x="273" unicode="|" d="M177 -205h-81v937h81v-937z"/>
<glyph glyph-name="braceright" horiz-adv-x="301" unicode="}" d="M24 741h22q79 0 113.5 -38.5t34.5 -123.5v-156q0 -43 15 -64.5t52 -32.5v-61q-37 -11 -52 -32t-15 -65v-155q0 -85 -34.5 -123.5t-113.5 -38.5h-22v56q48 1 68 23.5t20 76.5v164q0 52 19 80.5t65 42.5v3q-46 15 -65 43t-19 81v163q0 54 -20 76.5t-68 24.5v56z"/>
<glyph glyph-name="asciitilde" horiz-adv-x="583" unicode="~" d="M173 410q37 0 72 -17.5t57.5 -38.5t52 -38.5t56.5 -17.5q39 0 62 27.5t23 73.5h62q0 -79 -41 -127t-107 -48q-37 0 -72 17.5t-57.5 38.5t-52 38.5t-56.5 17.5q-39 0 -62 -28t-23 -74h-62q0 79 41 127.5t107 48.5z"/>
<glyph glyph-name="nbspace" horiz-adv-x="230" unicode=" "/>
<glyph glyph-name="exclamdown" horiz-adv-x="275" unicode="¡" d="M102 333h71l21 -537h-113zM86 508h104v-106h-104v106z"/>
<glyph glyph-name="cent" d="M146 333q0 -80 30 -130.5t84 -62.5v386q-54 -12 -84 -62.5t-30 -130.5zM323 525v-384q39 10 64.5 44.5t29.5 80.5h92q-7 -81 -57 -135t-129 -64v-91h-63v91q-96 11 -151.5 81.5t-55.5 184.5q0 115 55 185t152 81v89h63v-89q78 -9 128.5 -61t57.5 -130h-92q-4 45 -29 76.5 t-65 40.5z" unicode="¢"/>
<glyph glyph-name="sterling" d="M159 76h360v-76h-495v77q97 0 97 134v82h-97v77h97v100q0 108 53 163t152 55q93 0 145.5 -55t52.5 -151h-89q0 61 -28.5 93.5t-80.5 32.5q-114 0 -114 -138v-100h125v-77h-125v-81q0 -53 -12.5 -83.5t-40.5 -50.5v-2z" unicode="£"/>
<glyph glyph-name="currency" d="M281 150q61 0 97.5 38.5t36.5 102.5t-36.5 102.5t-97.5 38.5t-97 -38.5t-36 -102.5t36 -102.5t97 -38.5zM493 291q0 -75 -37 -129l76 -81l-59 -55l-75 80q-51 -31 -117 -31t-117 31l-75 -80l-59 55l76 80q-37 54 -37 130t37 130l-76 80l59 55l75 -80q51 31 117 31 t117 -31l75 80l59 -55l-76 -81q37 -54 37 -129z" unicode="¤"/>
<glyph glyph-name="yen" d="M364 360h136v-59h-172v-56h172v-59h-172v-186h-93v186h-173v59h173v56h-173v59h137l-190 314h106l59 -103q47 -80 106 -188h2l106 188l60 103h105z" unicode="¥"/>
<glyph glyph-name="brokenbar" horiz-adv-x="273" unicode="¦" d="M177 -205h-81v350h81v-350zM177 382h-81v350h81v-350z"/>
<glyph glyph-name="section" horiz-adv-x="578" unicode="§" d="M204 430q-55 -39 -55 -93q0 -40 28 -68t104 -62q45 -20 92 -46q56 36 56 96q0 40 -26 67t-101 60q-47 20 -98 46zM283 726q89 0 137 -43.5t52 -127.5h-89q-3 97 -100 97q-42 0 -66.5 -21t-24.5 -57q0 -38 23 -55.5t108 -54.5q110 -48 150.5 -86t40.5 -111q0 -93 -85 -145 v-2q49 -39 49 -111q0 -74 -51.5 -116.5t-139.5 -42.5q-96 0 -148 45t-53 133h89q3 -104 111 -104q47 0 73.5 22.5t26.5 62.5q0 41 -28 63.5t-119 63.5q-97 45 -136 83t-39 107q0 92 83 143v2q-47 38 -47 103q0 68 51 110t132 42z"/>
<glyph glyph-name="dieresis" horiz-adv-x="377" unicode="¨" d="M327 613h-82v99h82v-99zM132 613h-82v99h82v-99z"/>
<glyph glyph-name="copyright" horiz-adv-x="810" unicode="©" d="M406 599q84 0 134.5 -47t54.5 -122h-75q-4 47 -34 75.5t-80 28.5q-60 0 -94.5 -47.5t-34.5 -130.5q0 -82 34.5 -130t93.5 -48q48 0 79.5 29t37.5 79h76q-8 -80 -59 -126.5t-134 -46.5q-95 0 -149.5 65t-54.5 178t55 178t150 65zM405 677q-141 0 -227 -88t-86 -233 t86 -233t227 -88t227 88t86 233t-86 233t-227 88zM405 724q161 0 260 -101t99 -267t-99 -267t-260 -101t-259.5 101t-98.5 267t98.5 267t259.5 101z"/>
<glyph glyph-name="ordfeminine" horiz-adv-x="393" unicode="ª" d="M268 481v19q-48 -4 -89 -11q-43 -7 -60.5 -19.5t-17.5 -36.5q0 -25 18 -40t51 -15q46 0 70 25q28 28 28 78zM192 696q72 0 110.5 -35.5t38.5 -105.5v-131q0 -54 9 -94h-68q-5 27 -5 50h-2q-41 -58 -126 -58q-57 0 -91 29.5t-34 76.5t32.5 74.5t110.5 39.5q71 9 101 11v12 q0 76 -77 76q-36 0 -55.5 -17t-20.5 -47h-76q3 52 42.5 85.5t110.5 33.5z"/>
<glyph glyph-name="guillemetleft" horiz-adv-x="464" unicode="«" d="M305 254l111 -200h-83l-114 200l114 200h83zM133 254l111 -200h-82l-114 200l114 200h82z"/>
<glyph glyph-name="logicalnot" horiz-adv-x="566" unicode="¬" d="M495 140h-73v240h-351v74h424v-314z"/>
<glyph glyph-name="softhyphen" horiz-adv-x="300" unicode="­" d="M270 253h-240v78h240v-78z"/>
<glyph glyph-name="registered" horiz-adv-x="587" unicode="®" d="M235 588v-99h50q66 0 66 51q0 48 -62 48h-54zM181 634h117q53 0 80.5 -24t27.5 -67q0 -28 -15.5 -50t-40.5 -27v-2q28 -8 43 -52l34 -97h-58l-27 82q-8 25 -21.5 35.5t-37.5 10.5h-48v-128h-54v319zM293 693q-97 0 -156 -61t-59 -161t59 -161t156 -61t156 61t59 161 t-59 161t-156 61zM293 726q112 0 180.5 -70t68.5 -185t-68.5 -185.5t-180.5 -70.5t-180 70.5t-68 185.5t68 185t180 70z"/>
<glyph glyph-name="macron" horiz-adv-x="384" unicode="¯" d="M334 616h-284v64h284v-64z"/>
<glyph glyph-name="degree" horiz-adv-x="319" unicode="°" d="M159 669q-27 0 -46.5 -20t-19.5 -48q0 -27 19.5 -46.5t46.5 -19.5q28 0 48 19.5t20 46.5q0 28 -20 48t-48 20zM159 722q50 0 85.5 -35.5t35.5 -85.5t-35.5 -85t-85.5 -35q-49 0 -84.5 35.5t-35.5 84.5q0 50 35 85.5t85 35.5z"/>
<glyph glyph-name="plusminus" horiz-adv-x="566" unicode="±" d="M495 0h-424v74h424v-74zM319 381h176v-74h-176v-171h-72v171h-176v74h176v172h72v-172z"/>
<glyph glyph-name="twosuperior" horiz-adv-x="420" unicode="²" d="M212 812q73 0 117.5 -37t44.5 -97q0 -57 -34 -93t-102 -72q-66 -36 -89 -61t-24 -56h260v-66h-346q-1 6 -1 17q0 73 28.5 119t114.5 93q60 32 85 56t25 62q0 31 -21.5 50t-57.5 19q-82 0 -87 -86h-81q2 71 47.5 111.5t120.5 40.5z"/>
<glyph glyph-name="threesuperior" horiz-adv-x="414" unicode="³" d="M205 812q77 0 121 -35.5t44 -94.5q0 -77 -82 -109v-2q47 -17 68 -44t21 -71q0 -61 -47.5 -98.5t-123.5 -37.5q-84 0 -129.5 40.5t-45.5 114.5h80q0 -90 95 -90q40 0 65.5 20.5t25.5 52.5q0 79 -109 79h-17v63h17q47 0 74.5 20.5t27.5 54.5q0 33 -23.5 52t-63.5 19 q-87 0 -87 -87h-80q0 72 45 112.5t124 40.5z"/>
<glyph glyph-name="acute" horiz-adv-x="299" unicode="´" d="M126 569h-76l86 143h113z"/>
<glyph glyph-name="micro" horiz-adv-x="583" unicode="µ" d="M499 508v-363q0 -45 10.5 -61.5t36.5 -16.5q12 0 24 3v-67q-27 -9 -60 -9q-42 0 -64.5 19.5t-28.5 62.5h-2q-18 -38 -56 -60.5t-86 -22.5q-74 0 -107 42v-220h-88v693h88v-301q0 -77 28.5 -110.5t84.5 -33.5q57 0 94.5 40.5t37.5 114.5v290h88z"/>
<glyph glyph-name="paragraph" horiz-adv-x="588" unicode="¶" d="M566 650h-80v-770h-66v770h-87v-770h-66v428h-35q-88 0 -140 54.5t-52 147.5q0 92 52 147t140 55h334v-62z"/>
<glyph glyph-name="periodcentered" horiz-adv-x="226" unicode="·" d="M167 247h-108v117h108v-117z"/>
<glyph glyph-name="cedilla" horiz-adv-x="315" unicode="¸" d="M199 0l-40 -62q18 3 26 3q33 0 56.5 -20.5t23.5 -53.5q0 -37 -28.5 -62t-81.5 -25q-54 0 -105 27l18 37q36 -21 78 -21q56 0 56 41q0 19 -14.5 30.5t-38.5 11.5q-17 0 -31 -6l-18 20l53 80h46z"/>
<glyph glyph-name="onesuperior" horiz-adv-x="274" unicode="¹" d="M202 330h-79v332h-112v60q60 0 88.5 18.5t35.5 61.5h67v-472z"/>
<glyph glyph-name="ordmasculine" horiz-adv-x="416" unicode="º" d="M208 635q-46 0 -72 -34t-26 -93t26 -93t72 -34q47 0 73.5 34t26.5 93t-26.5 93t-73.5 34zM208 696q83 0 131 -50.5t48 -137.5q0 -88 -48 -138t-131 -50q-82 0 -130.5 50.5t-48.5 137.5t48.5 137.5t130.5 50.5z"/>
<glyph glyph-name="guillemetright" horiz-adv-x="464" unicode="»" d="M302 454l114 -200l-114 -200h-83l112 200l-112 200h83zM130 454l114 -200l-114 -200h-82l111 200l-111 200h82z"/>
<glyph glyph-name="onequarter" horiz-adv-x="721" unicode="¼" d="M446 158h126v49q0 45 2 133h-2q-40 -63 -84 -123zM711 95h-66v-95h-75v95h-195v66l171 243h99v-246h66v-63zM542 674l-385 -674h-73l384 674h74zM103 548h-94v58q49 0 73.5 16t31.5 52h66v-404h-77v278z"/>
<glyph glyph-name="onehalf" horiz-adv-x="755" unicode="½" d="M572 413q65 0 103 -32t38 -84q0 -49 -30 -81t-86 -62q-56 -29 -75.5 -48.5t-20.5 -42.5h223v-63h-304q-1 5 -1 16q0 65 25 104.5t99 79.5q27 15 40 23t27.5 20t20 25t5.5 29q0 24 -17 38.5t-47 14.5q-68 0 -70 -69h-77q1 62 41 97t106 35zM157 0h-73l384 674h74zM180 270 h-77v278h-94v58q49 0 73.5 16t31.5 52h66v-404z"/>
<glyph glyph-name="threequarters" horiz-adv-x="847" unicode="¾" d="M572 158h126v49q0 45 2 133h-2q-40 -63 -84 -123zM837 95h-66v-95h-75v95h-195v66l171 243h99v-246h66v-63zM667 674l-385 -674h-73l384 674h74zM331 378q0 -53 -41 -85t-109 -32q-74 0 -114.5 35.5t-40.5 99.5h76q0 -72 79 -72q34 0 54 15.5t20 41.5q0 63 -91 63h-13v61 h13q39 0 62.5 16t23.5 44q0 26 -19 40.5t-52 14.5q-73 0 -73 -68h-75q0 62 40 96.5t109 34.5q67 0 106 -30.5t39 -81.5q0 -64 -68 -92v-2q39 -14 56.5 -37.5t17.5 -61.5z"/>
<glyph glyph-name="questiondown" horiz-adv-x="483" unicode="¿" d="M256 -218q-98 0 -157.5 50t-59.5 131q0 54 21 90t86 91q57 48 73.5 83.5t16.5 115.5h78q1 -11 1 -30q0 -78 -19.5 -119t-82.5 -95q-50 -44 -65 -70t-15 -64q0 -47 33 -75t90 -28q128 0 136 129h91q-4 -102 -63 -155.5t-164 -53.5zM224 508h104v-106h-104v106z"/>
<glyph glyph-name="Agrave" horiz-adv-x="675" unicode="À" d="M465 293l-23 65l-103 290h-2l-103 -290l-24 -65h255zM495 212h-314l-78 -212h-98l270 712h125l271 -712h-99zM328 760l-123 138h113l86 -138h-76z"/>
<glyph glyph-name="Aacute" horiz-adv-x="675" unicode="Á" d="M465 293l-23 65l-103 290h-2l-103 -290l-24 -65h255zM495 212h-314l-78 -212h-98l270 712h125l271 -712h-99zM347 760h-76l86 138h113z"/>
<glyph glyph-name="Acircumflex" horiz-adv-x="675" unicode="Â" d="M465 293l-23 65l-103 290h-2l-103 -290l-24 -65h255zM495 212h-314l-78 -212h-98l270 712h125l271 -712h-99zM264 760h-89l114 138h97l114 -138h-89l-74 89z"/>
<glyph glyph-name="Atilde" horiz-adv-x="675" unicode="Ã" d="M465 293l-23 65l-103 290h-2l-103 -290l-24 -65h255zM495 212h-314l-78 -212h-98l270 712h125l271 -712h-99zM269 828q-41 0 -46 -51h-58q3 55 30 85t71 30q33 0 77 -25.5t63 -25.5q40 0 46 51h58q-3 -55 -30 -85t-71 -30q-33 0 -77 25.5t-63 25.5z"/>
<glyph glyph-name="Adieresis" horiz-adv-x="675" unicode="Ä" d="M465 293l-23 65l-103 290h-2l-103 -290l-24 -65h255zM495 212h-314l-78 -212h-98l270 712h125l271 -712h-99zM476 775h-82v99h82v-99zM281 775h-82v99h82v-99z"/>
<glyph glyph-name="Aring" horiz-adv-x="675" unicode="Å" d="M465 293l-23 65l-103 290h-2l-103 -290l-24 -65h255zM495 212h-314l-78 -212h-98l270 712h125l271 -712h-99zM337 910q-23 0 -40 -17t-17 -41t17 -40.5t40 -16.5q25 0 41.5 16.5t16.5 40.5t-16.5 41t-41.5 17zM337 752q-41 0 -70.5 29.5t-29.5 70.5q0 42 29.5 71.5 t70.5 29.5q42 0 71.5 -29.5t29.5 -71.5q0 -41 -29.5 -70.5t-71.5 -29.5z"/>
<glyph glyph-name="AE" horiz-adv-x="937" unicode="Æ" d="M467 305l-49 329h-15l-158 -329h222zM884 82v-82h-371l-34 224h-273l-107 -224h-105l349 712h530v-82h-364l34 -225h310v-81h-298l36 -242h293z"/>
<glyph glyph-name="Ccedilla" horiz-adv-x="689" unicode="Ç" d="M546 245h96q-11 -112 -79 -180.5t-180 -77.5l-32 -49q18 3 26 3q33 0 56.5 -20.5t23.5 -53.5q0 -37 -28.5 -62t-81.5 -25q-54 0 -105 27l18 37q36 -21 78 -21q56 0 56 41q0 19 -14.5 30.5t-38.5 11.5q-17 0 -31 -6l-18 20l44 66q-137 6 -215 104.5t-78 265.5 q0 172 83.5 271t228.5 99q125 0 201 -71t82 -184h-95q-7 79 -57.5 125t-130.5 46q-101 0 -158.5 -76.5t-57.5 -209.5t57 -209.5t156 -76.5q79 0 131 47t63 128z"/>
<glyph glyph-name="Egrave" horiz-adv-x="618" unicode="È" d="M554 630h-367v-225h346v-81h-346v-242h378v-82h-470v712h459v-82zM305 898l86 -138h-76l-123 138h113z"/>
<glyph glyph-name="Eacute" horiz-adv-x="618" unicode="É" d="M554 630h-367v-225h346v-81h-346v-242h378v-82h-470v712h459v-82zM333 760h-76l86 138h113z"/>
<glyph glyph-name="Ecircumflex" horiz-adv-x="618" unicode="Ê" d="M554 630h-367v-225h346v-81h-346v-242h378v-82h-470v712h459v-82zM276 898h97l114 -138h-89l-74 89l-73 -89h-89z"/>
<glyph glyph-name="Edieresis" horiz-adv-x="618" unicode="Ë" d="M554 630h-367v-225h346v-81h-346v-242h378v-82h-470v712h459v-82zM463 775h-82v99h82v-99zM268 775h-82v99h82v-99z"/>
<glyph glyph-name="Igrave" horiz-adv-x="282" unicode="Ì" d="M187 0h-92v712h92v-712zM122 898l86 -138h-76l-123 138h113z"/>
<glyph glyph-name="Iacute" horiz-adv-x="282" unicode="Í" d="M187 0h-92v712h92v-712zM150 760h-76l86 138h113z"/>
<glyph glyph-name="Icircumflex" horiz-adv-x="282" unicode="Î" d="M187 0h-92v712h92v-712zM92 898h97l114 -138h-89l-74 89l-73 -89h-89z"/>
<glyph glyph-name="Idieresis" horiz-adv-x="282" unicode="Ï" d="M187 0h-92v712h92v-712zM279 775h-82v99h82v-99zM84 775h-82v99h82v-99z"/>
<glyph glyph-name="Eth" horiz-adv-x="723" unicode="Ð" d="M187 82h124q133 0 203 70t70 204t-70 204t-203 70h-124v-234h202v-71h-202v-243zM95 712h217q177 0 273 -92.5t96 -263.5t-96 -263.5t-273 -92.5h-217v325h-66v71h66v316z"/>
<glyph glyph-name="Ntilde" horiz-adv-x="755" unicode="Ñ" d="M661 0h-136l-169 307l-172 319h-2q3 -171 3 -341v-285h-90v712h135l170 -307l172 -319h2q-3 171 -3 341v285h90v-712zM493 892h58q-3 -55 -30 -85t-71 -30q-33 0 -77 25.5t-63 25.5q-42 0 -46 -51h-58q3 55 30 85t71 30q33 0 77 -25.5t63 -25.5q40 0 46 51z"/>
<glyph glyph-name="Ograve" horiz-adv-x="732" unicode="Ò" d="M366 642q-105 0 -166 -77t-61 -209t61 -209t166 -77q104 0 165.5 77.5t61.5 208.5t-61.5 208.5t-165.5 77.5zM366 726q149 0 236 -100t87 -270t-87 -270t-236 -100t-236 100t-87 270t87 270t236 100zM346 898l86 -138h-76l-123 138h113z"/>
<glyph glyph-name="Oacute" horiz-adv-x="732" unicode="Ó" d="M366 642q-105 0 -166 -77t-61 -209t61 -209t166 -77q104 0 165.5 77.5t61.5 208.5t-61.5 208.5t-165.5 77.5zM366 726q149 0 236 -100t87 -270t-87 -270t-236 -100t-236 100t-87 270t87 270t236 100zM375 760h-76l86 138h113z"/>
<glyph glyph-name="Ocircumflex" horiz-adv-x="732" unicode="Ô" d="M366 642q-105 0 -166 -77t-61 -209t61 -209t166 -77q104 0 165.5 77.5t61.5 208.5t-61.5 208.5t-165.5 77.5zM366 726q149 0 236 -100t87 -270t-87 -270t-236 -100t-236 100t-87 270t87 270t236 100zM317 898h97l114 -138h-89l-74 89l-73 -89h-89z"/>
<glyph glyph-name="Otilde" horiz-adv-x="732" unicode="Õ" d="M366 642q-105 0 -166 -77t-61 -209t61 -209t166 -77q104 0 165.5 77.5t61.5 208.5t-61.5 208.5t-165.5 77.5zM366 726q149 0 236 -100t87 -270t-87 -270t-236 -100t-236 100t-87 270t87 270t236 100zM481 892h58q-3 -55 -30 -85t-71 -30q-33 0 -77 25.5t-63 25.5 q-42 0 -46 -51h-58q3 55 30 85t71 30q33 0 77 -25.5t63 -25.5q40 0 46 51z"/>
<glyph glyph-name="Odieresis" horiz-adv-x="732" unicode="Ö" d="M366 642q-105 0 -166 -77t-61 -209t61 -209t166 -77q104 0 165.5 77.5t61.5 208.5t-61.5 208.5t-165.5 77.5zM366 726q149 0 236 -100t87 -270t-87 -270t-236 -100t-236 100t-87 270t87 270t236 100zM504 775h-82v99h82v-99zM309 775h-82v99h82v-99z"/>
<glyph glyph-name="multiply" horiz-adv-x="566" unicode="×" d="M527 499l-193 -193l193 -192l-51 -51l-193 192l-192 -192l-52 51l193 192l-193 193l52 51l192 -192l193 192z"/>
<glyph glyph-name="Oslash" horiz-adv-x="732" unicode="Ø" d="M366 67q106 0 167.5 78t61.5 211q0 115 -46 189l-323 -428q58 -50 140 -50zM137 356q0 -115 46 -189l324 428q-58 50 -141 50q-106 0 -167.5 -78t-61.5 -211zM670 706l-64 -85q83 -100 83 -265q0 -170 -87 -270t-236 -100q-115 0 -193 60l-60 -79l-51 39l64 85 q-83 100 -83 265q0 170 87 270t236 100q115 0 194 -61l60 80z"/>
<glyph glyph-name="Ugrave" horiz-adv-x="705" unicode="Ù" d="M617 712v-445q0 -137 -68 -209t-196 -72q-129 0 -196.5 71.5t-67.5 209.5v445h92v-443q0 -98 45 -148.5t127 -50.5t126.5 50.5t44.5 148.5v443h93zM333 898l86 -138h-76l-123 138h113z"/>
<glyph glyph-name="Uacute" horiz-adv-x="705" unicode="Ú" d="M617 712v-445q0 -137 -68 -209t-196 -72q-129 0 -196.5 71.5t-67.5 209.5v445h92v-443q0 -98 45 -148.5t127 -50.5t126.5 50.5t44.5 148.5v443h93zM362 760h-76l86 138h113z"/>
<glyph glyph-name="Ucircumflex" horiz-adv-x="705" unicode="Û" d="M617 712v-445q0 -137 -68 -209t-196 -72q-129 0 -196.5 71.5t-67.5 209.5v445h92v-443q0 -98 45 -148.5t127 -50.5t126.5 50.5t44.5 148.5v443h93zM304 898h97l114 -138h-89l-74 89l-73 -89h-89z"/>
<glyph glyph-name="Udieresis" horiz-adv-x="705" unicode="Ü" d="M617 712v-445q0 -137 -68 -209t-196 -72q-129 0 -196.5 71.5t-67.5 209.5v445h92v-443q0 -98 45 -148.5t127 -50.5t126.5 50.5t44.5 148.5v443h93zM491 775h-82v99h82v-99zM296 775h-82v99h82v-99z"/>
<glyph glyph-name="Yacute" horiz-adv-x="614" unicode="Ý" d="M353 295v-295h-92v295l-257 417h107l87 -147l108 -188h2l108 188l88 147h106zM316 760h-76l86 138h113z"/>
<glyph glyph-name="Thorn" horiz-adv-x="616" unicode="Þ" d="M187 502v-269h145q80 0 120.5 35.5t40.5 99.5t-40.5 99t-120.5 35h-145zM187 582h152q121 0 185 -57.5t64 -156.5q0 -100 -64 -157.5t-185 -57.5h-152v-153h-92v712h92v-130z"/>
<glyph glyph-name="germandbls" horiz-adv-x="557" unicode="ß" d="M284 726q91 0 145.5 -47t54.5 -125q0 -117 -115 -155v-2q70 -13 109.5 -62t39.5 -128q0 -100 -62 -156.5t-169 -56.5q-29 0 -51 6v75q18 -5 40 -5q71 0 110.5 37t39.5 105t-39.5 106.5t-109.5 38.5h-14v78q134 0 134 111q0 50 -30 78t-82 28q-119 0 -119 -148v-504h-88 v510q0 103 54 159.5t152 56.5z"/>
<glyph glyph-name="agrave" horiz-adv-x="531" unicode="à" d="M374 217v31q-77 -6 -133 -16q-64 -10 -90.5 -30t-26.5 -58q0 -40 27.5 -63.5t76.5 -23.5q67 0 105 40q23 24 32 49.5t9 70.5zM259 522q95 0 147.5 -49.5t52.5 -147.5v-195q0 -77 12 -130h-80q-7 32 -7 74h-2q-55 -85 -176 -85q-78 0 -125 41.5t-47 107.5t43.5 104.5 t149.5 55.5q74 12 147 17v20q0 61 -30.5 90t-84.5 29t-84 -27.5t-32 -73.5h-88q4 75 57 122t147 47zM233 712l86 -143h-76l-123 143h113z"/>
<glyph glyph-name="aacute" horiz-adv-x="531" unicode="á" d="M374 217v31q-77 -6 -133 -16q-64 -10 -90.5 -30t-26.5 -58q0 -40 27.5 -63.5t76.5 -23.5q67 0 105 40q23 24 32 49.5t9 70.5zM259 522q95 0 147.5 -49.5t52.5 -147.5v-195q0 -77 12 -130h-80q-7 32 -7 74h-2q-55 -85 -176 -85q-78 0 -125 41.5t-47 107.5t43.5 104.5 t149.5 55.5q74 12 147 17v20q0 61 -30.5 90t-84.5 29t-84 -27.5t-32 -73.5h-88q4 75 57 122t147 47zM262 569h-76l86 143h113z"/>
<glyph glyph-name="acircumflex" horiz-adv-x="531" unicode="â" d="M374 217v31q-77 -6 -133 -16q-64 -10 -90.5 -30t-26.5 -58q0 -40 27.5 -63.5t76.5 -23.5q67 0 105 40q23 24 32 49.5t9 70.5zM259 522q95 0 147.5 -49.5t52.5 -147.5v-195q0 -77 12 -130h-80q-7 32 -7 74h-2q-55 -85 -176 -85q-78 0 -125 41.5t-47 107.5t43.5 104.5 t149.5 55.5q74 12 147 17v20q0 61 -30.5 90t-84.5 29t-84 -27.5t-32 -73.5h-88q4 75 57 122t147 47zM326 569l-73 93l-74 -93h-89l114 143h97l114 -143h-89z"/>
<glyph glyph-name="atilde" horiz-adv-x="531" unicode="ã" d="M374 217v31q-77 -6 -133 -16q-64 -10 -90.5 -30t-26.5 -58q0 -40 27.5 -63.5t76.5 -23.5q67 0 105 40q23 24 32 49.5t9 70.5zM259 522q95 0 147.5 -49.5t52.5 -147.5v-195q0 -77 12 -130h-80q-7 32 -7 74h-2q-55 -85 -176 -85q-78 0 -125 41.5t-47 107.5t43.5 104.5 t149.5 55.5q74 12 147 17v20q0 61 -30.5 90t-84.5 29t-84 -27.5t-32 -73.5h-88q4 75 57 122t147 47zM368 706h58q-3 -55 -30 -85t-71 -30q-33 0 -77 25.5t-63 25.5q-41 0 -46 -51h-58q3 55 30 85t71 30q33 0 77 -25.5t63 -25.5q40 0 46 51z"/>
<glyph glyph-name="adieresis" horiz-adv-x="531" unicode="ä" d="M374 217v31q-77 -6 -133 -16q-64 -10 -90.5 -30t-26.5 -58q0 -40 27.5 -63.5t76.5 -23.5q67 0 105 40q23 24 32 49.5t9 70.5zM259 522q95 0 147.5 -49.5t52.5 -147.5v-195q0 -77 12 -130h-80q-7 32 -7 74h-2q-55 -85 -176 -85q-78 0 -125 41.5t-47 107.5t43.5 104.5 t149.5 55.5q74 12 147 17v20q0 61 -30.5 90t-84.5 29t-84 -27.5t-32 -73.5h-88q4 75 57 122t147 47zM391 613h-82v99h82v-99zM196 613h-82v99h82v-99z"/>
<glyph glyph-name="aring" horiz-adv-x="531" unicode="å" d="M374 217v31q-77 -6 -133 -16q-64 -10 -90.5 -30t-26.5 -58q0 -40 27.5 -63.5t76.5 -23.5q67 0 105 40q23 24 32 49.5t9 70.5zM259 522q95 0 147.5 -49.5t52.5 -147.5v-195q0 -77 12 -130h-80q-7 32 -7 74h-2q-55 -85 -176 -85q-78 0 -125 41.5t-47 107.5t43.5 104.5 t149.5 55.5q74 12 147 17v20q0 61 -30.5 90t-84.5 29t-84 -27.5t-32 -73.5h-88q4 75 57 122t147 47zM252 724q-23 0 -40 -17t-17 -41t16.5 -41t40.5 -17q25 0 41.5 16.5t16.5 41.5q0 24 -16.5 41t-41.5 17zM252 766q42 0 71.5 -29.5t29.5 -70.5q0 -42 -29.5 -71.5 t-71.5 -29.5q-41 0 -70.5 29.5t-29.5 71.5q0 41 29.5 70.5t70.5 29.5z"/>
<glyph glyph-name="ae" horiz-adv-x="862" unicode="æ" d="M378 233h-100q-84 0 -119 -22.5t-35 -68.5q0 -40 28 -64t78 -24q68 0 106 41q24 24 33 50.5t9 71.5v16zM597 454q-59 0 -96 -40.5t-43 -113.5h276q-4 74 -41.5 114t-95.5 40zM600 54q51 0 84 27t42 71h90q-13 -71 -69.5 -118.5t-146.5 -47.5q-126 0 -185 108 q-28 -52 -80 -80t-120 -28q-82 0 -131.5 42.5t-49.5 110.5q0 77 54.5 119t179.5 42h110v35q0 119 -117 119q-54 0 -84.5 -27.5t-33.5 -73.5h-88q5 75 58.5 122t147.5 47q123 0 168 -82q59 82 168 82q81 0 138 -48t76 -130q10 -43 10 -111h-364q4 -89 43 -134t100 -45z"/>
<glyph glyph-name="ccedilla" horiz-adv-x="534" unicode="ç" d="M279 58q52 0 86.5 36.5t39.5 92.5h92q-7 -80 -56.5 -134.5t-127.5 -64.5l-32 -50q18 3 26 3q33 0 56.5 -20.5t23.5 -53.5q0 -37 -28.5 -62t-81.5 -25q-54 0 -105 27l18 37q36 -21 78 -21q56 0 56 41q0 19 -14.5 30.5t-38.5 11.5q-17 0 -31 -6l-18 20l44 66 q-104 5 -164.5 76.5t-60.5 191.5q0 124 64.5 196t174.5 72q91 0 150 -54t67 -140h-92q-5 54 -39.5 88t-86.5 34q-67 0 -106 -52.5t-39 -143.5t38.5 -143.5t106.5 -52.5z"/>
<glyph glyph-name="egrave" horiz-adv-x="550" unicode="è" d="M277 454q-62 0 -101 -39.5t-46 -111.5h292q-7 73 -46 112t-99 39zM280 54q54 0 89.5 27t44.5 71h90q-14 -71 -72.5 -118.5t-151.5 -47.5q-111 0 -175 74.5t-64 200.5q0 115 63.5 188t172.5 73q85 0 143.5 -47t78.5 -130q10 -41 10 -109h-380q3 -90 44.5 -136t106.5 -46z M265 569l-123 143h113l86 -143h-76z"/>
<glyph glyph-name="eacute" horiz-adv-x="550" unicode="é" d="M277 454q-62 0 -101 -39.5t-46 -111.5h292q-7 73 -46 112t-99 39zM280 54q54 0 89.5 27t44.5 71h90q-14 -71 -72.5 -118.5t-151.5 -47.5q-111 0 -175 74.5t-64 200.5q0 115 63.5 188t172.5 73q85 0 143.5 -47t78.5 -130q10 -41 10 -109h-380q3 -90 44.5 -136t106.5 -46z M284 569h-76l86 143h113z"/>
<glyph glyph-name="ecircumflex" horiz-adv-x="550" unicode="ê" d="M277 454q-62 0 -101 -39.5t-46 -111.5h292q-7 73 -46 112t-99 39zM280 54q54 0 89.5 27t44.5 71h90q-14 -71 -72.5 -118.5t-151.5 -47.5q-111 0 -175 74.5t-64 200.5q0 115 63.5 188t172.5 73q85 0 143.5 -47t78.5 -130q10 -41 10 -109h-380q3 -90 44.5 -136t106.5 -46z M201 569h-89l114 143h97l114 -143h-89l-73 93z"/>
<glyph glyph-name="edieresis" horiz-adv-x="550" unicode="ë" d="M277 454q-62 0 -101 -39.5t-46 -111.5h292q-7 73 -46 112t-99 39zM280 54q54 0 89.5 27t44.5 71h90q-14 -71 -72.5 -118.5t-151.5 -47.5q-111 0 -175 74.5t-64 200.5q0 115 63.5 188t172.5 73q85 0 143.5 -47t78.5 -130q10 -41 10 -109h-380q3 -90 44.5 -136t106.5 -46z M413 613h-82v99h82v-99zM218 613h-82v99h82v-99z"/>
<glyph glyph-name="igrave" horiz-adv-x="244" unicode="ì" d="M166 0h-88v508h88v-508zM103 712l86 -143h-76l-123 143h113z"/>
<glyph glyph-name="iacute" horiz-adv-x="244" unicode="í" d="M166 0h-88v508h88v-508zM132 569h-76l86 143h113z"/>
<glyph glyph-name="icircumflex" horiz-adv-x="244" unicode="î" d="M166 0h-88v508h88v-508zM270 570h-85l-63 93l-62 -93h-86l100 142h96z"/>
<glyph glyph-name="idieresis" horiz-adv-x="244" unicode="ï" d="M166 0h-88v508h88v-508zM239 613h-81v99h81v-99zM86 613h-82v99h82v-99z"/>
<glyph glyph-name="eth" horiz-adv-x="566" unicode="ð" d="M282 58q70 0 110 52t40 143q0 90 -40 142t-110 52q-69 0 -109 -52t-40 -142q0 -91 40 -143t109 -52zM424 534q100 -131 100 -278q0 -125 -64.5 -197.5t-176.5 -72.5t-177 70.5t-65 192.5q0 121 60.5 191.5t164.5 70.5q61 0 104 -35v2q-44 59 -110 117l-134 -60l-21 49 l109 49q-37 29 -70 51l65 42q46 -31 80 -59l123 55l22 -49l-100 -45q56 -49 90 -94z"/>
<glyph glyph-name="ntilde" horiz-adv-x="576" unicode="ñ" d="M319 519q88 0 136 -53t48 -156v-310h-88v303q0 77 -30 110.5t-87 33.5t-94.5 -41t-37.5 -115v-291h-88v508h85v-67h2q51 78 154 78zM405 706h58q-3 -55 -30 -85t-71 -30q-33 0 -77 25.5t-63 25.5q-41 0 -46 -51h-58q3 55 30 85t71 30q33 0 77 -25.5t63 -25.5q40 0 46 51z "/>
<glyph glyph-name="ograve" horiz-adv-x="565" unicode="ò" d="M282 450q-69 0 -109 -52.5t-40 -143.5t40 -143.5t109 -52.5q70 0 110 52.5t40 143.5t-40 143.5t-110 52.5zM282 522q112 0 177 -72t65 -196t-65 -196t-177 -72t-176.5 72t-64.5 196t64.5 196t176.5 72zM263 712l86 -143h-76l-123 143h113z"/>
<glyph glyph-name="oacute" horiz-adv-x="565" unicode="ó" d="M282 450q-69 0 -109 -52.5t-40 -143.5t40 -143.5t109 -52.5q70 0 110 52.5t40 143.5t-40 143.5t-110 52.5zM282 522q112 0 177 -72t65 -196t-65 -196t-177 -72t-176.5 72t-64.5 196t64.5 196t176.5 72zM292 569h-76l86 143h113z"/>
<glyph glyph-name="ocircumflex" horiz-adv-x="565" unicode="ô" d="M282 450q-69 0 -109 -52.5t-40 -143.5t40 -143.5t109 -52.5q70 0 110 52.5t40 143.5t-40 143.5t-110 52.5zM282 522q112 0 177 -72t65 -196t-65 -196t-177 -72t-176.5 72t-64.5 196t64.5 196t176.5 72zM356 569l-73 93l-74 -93h-89l114 143h97l114 -143h-89z"/>
<glyph glyph-name="otilde" horiz-adv-x="565" unicode="õ" d="M282 450q-69 0 -109 -52.5t-40 -143.5t40 -143.5t109 -52.5q70 0 110 52.5t40 143.5t-40 143.5t-110 52.5zM282 522q112 0 177 -72t65 -196t-65 -196t-177 -72t-176.5 72t-64.5 196t64.5 196t176.5 72zM397 706h58q-3 -55 -30 -85t-71 -30q-33 0 -77 25.5t-63 25.5 q-41 0 -46 -51h-58q3 55 30 85t71 30q33 0 77 -25.5t63 -25.5q40 0 46 51z"/>
<glyph glyph-name="odieresis" horiz-adv-x="565" unicode="ö" d="M282 450q-69 0 -109 -52.5t-40 -143.5t40 -143.5t109 -52.5q70 0 110 52.5t40 143.5t-40 143.5t-110 52.5zM282 522q112 0 177 -72t65 -196t-65 -196t-177 -72t-176.5 72t-64.5 196t64.5 196t176.5 72zM421 613h-82v99h82v-99zM226 613h-82v99h82v-99z"/>
<glyph glyph-name="divide" horiz-adv-x="566" unicode="÷" d="M324 108h-82v85h82v-85zM495 280h-424v73h424v-73zM324 441h-82v85h82v-85z"/>
<glyph glyph-name="oslash" horiz-adv-x="566" unicode="ø" d="M282 56q71 0 112 53t41 145q0 71 -27 122l-217 -289q37 -31 91 -31zM282 452q-70 0 -111 -53t-41 -145q0 -73 26 -122l218 288q-37 32 -92 32zM516 516l-53 -70q61 -72 61 -192q0 -124 -65 -196t-177 -72q-82 0 -138 38l-51 -66l-43 33l53 70q-62 71 -62 193 q0 124 64.5 196t176.5 72q81 0 139 -39l52 68z"/>
<glyph glyph-name="ugrave" horiz-adv-x="576" unicode="ù" d="M256 -11q-88 0 -135.5 53t-47.5 156v310h88v-303q0 -77 30 -110.5t87 -33.5q56 0 94 41.5t38 114.5v291h88v-508h-85v67h-2q-24 -36 -64.5 -57t-90.5 -21zM269 712l86 -143h-76l-123 143h113z"/>
<glyph glyph-name="uacute" horiz-adv-x="576" unicode="ú" d="M256 -11q-88 0 -135.5 53t-47.5 156v310h88v-303q0 -77 30 -110.5t87 -33.5q56 0 94 41.5t38 114.5v291h88v-508h-85v67h-2q-24 -36 -64.5 -57t-90.5 -21zM297 569h-76l86 143h113z"/>
<glyph glyph-name="ucircumflex" horiz-adv-x="576" unicode="û" d="M256 -11q-88 0 -135.5 53t-47.5 156v310h88v-303q0 -77 30 -110.5t87 -33.5q56 0 94 41.5t38 114.5v291h88v-508h-85v67h-2q-24 -36 -64.5 -57t-90.5 -21zM361 569l-73 93l-74 -93h-89l114 143h97l114 -143h-89z"/>
<glyph glyph-name="udieresis" horiz-adv-x="576" unicode="ü" d="M256 -11q-88 0 -135.5 53t-47.5 156v310h88v-303q0 -77 30 -110.5t87 -33.5q56 0 94 41.5t38 114.5v291h88v-508h-85v67h-2q-24 -36 -64.5 -57t-90.5 -21zM426 613h-82v99h82v-99zM231 613h-82v99h82v-99z"/>
<glyph glyph-name="yacute" horiz-adv-x="472" unicode="ý" d="M478 508l-204 -531q-37 -96 -81.5 -131t-127.5 -35q-30 0 -46 5v74q18 -6 42 -6q50 0 75.5 23t50.5 91l-193 510h95l146 -404h2l148 404h93zM246 569h-76l86 143h113z"/>
<glyph glyph-name="thorn" horiz-adv-x="576" unicode="þ" d="M300 450q-63 0 -100.5 -52.5t-37.5 -142.5t37.5 -143t100.5 -53q65 0 104 53.5t39 142.5t-39 142t-104 53zM166 438h2q21 38 62 60.5t92 22.5q97 0 155 -72t58 -194t-57.5 -194.5t-154.5 -72.5q-51 0 -92.5 22.5t-62.5 61.5h-2v-257h-88v897h88v-274z"/>
<glyph glyph-name="OE" horiz-adv-x="999" unicode="Œ" d="M476 630h-67q-131 0 -200.5 -70.5t-69.5 -203.5t69.5 -203.5t200.5 -70.5h67v548zM935 630h-367v-225h347v-81h-347v-242h378v-82h-537q-176 0 -271 92.5t-95 263.5t95 263.5t271 92.5h526v-82z"/>
<glyph glyph-name="oe" horiz-adv-x="897" unicode="œ" d="M272 58q65 0 102.5 52.5t37.5 143.5t-37.5 143.5t-102.5 52.5q-64 0 -101.5 -52.5t-37.5 -143.5t37.5 -143.5t101.5 -52.5zM632 454q-58 0 -95 -39.5t-44 -111.5h276q-7 73 -43.5 112t-93.5 39zM635 54q51 0 84 27t42 71h90q-13 -71 -69.5 -118.5t-146.5 -47.5 q-123 0 -182 103q-58 -103 -181 -103q-107 0 -169 72t-62 196t62 196t169 72q121 0 181 -102q58 102 179 102q81 0 138 -47.5t76 -129.5q10 -41 10 -109h-364q3 -90 42 -136t101 -46z"/>
<glyph glyph-name="Scaron" horiz-adv-x="609" unicode="Š" d="M288 726q255 0 255 -234h-93q0 155 -163 155q-66 0 -103.5 -30t-37.5 -81q0 -53 38 -78t134 -49q48 -12 78 -21t65 -26t54 -37.5t32 -53t13 -75.5q0 -96 -69.5 -153t-185.5 -57q-126 0 -196 64t-70 186h95q0 -86 45 -128.5t127 -42.5q76 0 117.5 33t41.5 93q0 55 -38 79 t-136 49q-40 10 -66 18t-56.5 20t-49 27t-35.5 35.5t-24.5 48t-7.5 62.5q0 87 64 141.5t172 54.5zM337 760h-97l-114 138h89l74 -88l73 88h89z"/>
<glyph glyph-name="scaron" horiz-adv-x="494" unicode="š" d="M239 522q94 0 146 -45t52 -128h-86q0 51 -29.5 78t-83.5 27q-46 0 -72.5 -19.5t-26.5 -52.5q0 -37 24.5 -51t97.5 -31q98 -24 132 -46q59 -40 60 -116q0 -69 -54.5 -110.5t-146.5 -41.5q-101 0 -156.5 47t-56.5 136h89q0 -54 32.5 -83.5t92.5 -29.5q50 0 80 21t30 55 q0 41 -28.5 57.5t-111.5 36.5q-88 22 -118 41q-54 34 -54 108q0 65 52.5 106t135.5 41zM287 569h-97l-114 143h89l74 -93l73 93h89z"/>
<glyph glyph-name="Ydieresis" horiz-adv-x="614" unicode="Ÿ" d="M353 295v-295h-92v295l-257 417h107l87 -147l108 -188h2l108 188l88 147h106zM445 775h-82v99h82v-99zM250 775h-82v99h82v-99z"/>
<glyph glyph-name="circumflex" horiz-adv-x="425" unicode="ˆ" d="M286 569l-73 93l-74 -93h-89l114 143h97l114 -143h-89z"/>
<glyph glyph-name="tilde" horiz-adv-x="445" unicode="˜" d="M337 706h58q-3 -55 -30 -85t-71 -30q-33 0 -77 25.5t-63 25.5q-41 0 -46 -51h-58q3 55 30 85t71 30q33 0 77 -25.5t63 -25.5q40 0 46 51z"/>
<glyph glyph-name="Delta" horiz-adv-x="675" unicode="Δ" d="M542 82l-101 276l-103 290h-2l-103 -290l-101 -276h410zM671 0h-666l271 712h125z"/>
<glyph glyph-name="mu" horiz-adv-x="583" unicode="μ" d="M499 508v-363q0 -45 10.5 -61.5t36.5 -16.5q12 0 24 3v-67q-27 -9 -60 -9q-42 0 -64.5 19.5t-28.5 62.5h-2q-18 -38 -56 -60.5t-86 -22.5q-74 0 -107 42v-220h-88v693h88v-301q0 -77 28.5 -110.5t84.5 -33.5q57 0 94.5 40.5t37.5 114.5v290h88z"/>
<glyph glyph-name="pi" horiz-adv-x="652" unicode="π" d="M633 438h-117v-281q0 -52 17 -72t52 -20q14 0 30 4v-67q-24 -8 -60 -8q-64 0 -95.5 35t-31.5 118v291h-225v-438h-88v438h-103v70h621v-70z"/>
<glyph glyph-name="endash" horiz-adv-x="500" unicode="–" d="M480 253h-460v78h460v-78z"/>
<glyph glyph-name="emdash" horiz-adv-x="1000" unicode="—" d="M980 253h-960v78h960v-78z"/>
<glyph glyph-name="quoteleft" horiz-adv-x="237" unicode="‘" d="M69 578l48 134h53l-35 -134h34v-108h-100v108z"/>
<glyph glyph-name="quotesinglbase" horiz-adv-x="237" unicode="‚" d="M168 0l-48 -134h-53l35 134h-33v108h99v-108z"/>
<glyph glyph-name="quotedblleft" horiz-adv-x="398" unicode="“" d="M230 578l48 134h52l-35 -134h34v-108h-99v108zM69 578l48 134h53l-35 -134h34v-108h-100v108z"/>
<glyph glyph-name="quotedblright" horiz-adv-x="398" unicode="”" d="M329 604l-48 -134h-53l35 134h-34v108h100v-108zM168 604l-48 -134h-53l35 134h-33v108h99v-108z"/>
<glyph glyph-name="dagger" horiz-adv-x="536" unicode="†" d="M313 522h169v-74h-169v-568h-90v568h-169v74h169v190h90v-190z"/>
<glyph glyph-name="daggerdbl" horiz-adv-x="536" unicode="‡" d="M313 523h169v-74h-169v-264h169v-74h-169v-231h-90v231h-169v74h169v264h-169v74h169v189h90v-189z"/>
<glyph glyph-name="ellipsis" horiz-adv-x="753" unicode="…" d="M694 0h-108v117h108v-117zM431 0h-108v117h108v-117zM167 0h-108v117h108v-117z"/>
<glyph glyph-name="perthousand" horiz-adv-x="1014" unicode="‰" d="M849 258q-29 0 -45.5 -27.5t-16.5 -78.5t16.5 -78.5t45.5 -27.5q30 0 46.5 27.5t16.5 78.5t-16.5 78.5t-46.5 27.5zM521 258q-30 0 -46.5 -27.5t-16.5 -78.5t16.5 -78.5t46.5 -27.5q29 0 45.5 27.5t16.5 78.5t-16.5 78.5t-45.5 27.5zM849 317q65 0 100 -43t35 -122 t-35 -122t-100 -43q-64 0 -99.5 43t-35.5 122t35.5 122t99.5 43zM521 317q64 0 99.5 -43t35.5 -122t-35.5 -122t-99.5 -43q-65 0 -100 43t-35 122t35 122t100 43zM165 629q-30 0 -46.5 -27.5t-16.5 -78.5t16.5 -78.5t46.5 -27.5q29 0 45.5 27.5t16.5 78.5t-16.5 78.5 t-45.5 27.5zM165 688q64 0 99 -43t35 -122t-35 -122.5t-99 -43.5q-65 0 -100 43.5t-35 122.5t35 122t100 43zM167 -30h-70l422 734h70z"/>
<glyph glyph-name="guilsinglleft" horiz-adv-x="292" unicode="‹" d="M133 254l111 -200h-82l-114 200l114 200h82z"/>
<glyph glyph-name="guilsinglright" horiz-adv-x="292" unicode="›" d="M130 454l114 -200l-114 -200h-82l111 200l-111 200h82z"/>
<glyph glyph-name="overline" horiz-adv-x="500" unicode="‾" d="M500 788h-500v65h500v-65z"/>
<glyph glyph-name="fraction" horiz-adv-x="147" unicode="⁄" d="M-82 0h-73l384 674h74z"/>
<glyph glyph-name="euro" d="M455 205h92q-11 -105 -72 -162t-162 -57q-107 0 -173 67t-82 194h-57l11 58h41l-1 32v25h-51l11 58h45q16 130 82 199t175 69q102 0 162 -56t68 -159h-91q-7 65 -43 100t-96 35q-138 0 -164 -188h256l-11 -58h-250v-25q0 -22 1 -32h238l-11 -58h-222q28 -181 162 -181 q59 0 96 36t46 103z" unicode="€"/>
<glyph glyph-name="trademark" horiz-adv-x="801" unicode="™" d="M754 356h-64v170q0 85 1 126h-2l-40 -125l-57 -171h-77l-56 171q-10 28 -40 125h-2q0 -20 0.5 -62.5t0.5 -63.5v-170h-64v356h105l52 -156q36 -116 41 -134h2q4 14 18.5 61t23.5 73l53 156h105v-356zM304 653h-116v-297h-67v297h-116v59h299v-59z"/>
<glyph glyph-name="partialdiff" horiz-adv-x="601" unicode="∂" d="M286 403q-67 0 -107 -51.5t-40 -131.5q0 -73 35.5 -114t102.5 -41q69 0 109.5 50.5t40.5 128.5q0 72 -37.5 115.5t-103.5 43.5zM274 726q126 0 192.5 -89.5t66.5 -260.5q0 -196 -72 -293t-185 -97q-110 0 -170 64.5t-60 171.5q0 111 63 183.5t170 72.5q58 0 99 -24 t61 -60h2q1 9 1 29q0 102 -45.5 163t-119.5 61q-100 0 -114 -102h-93q9 84 60 132.5t144 48.5z"/>
<glyph glyph-name="product" horiz-adv-x="661" unicode="∏" d="M566 -120h-92v750h-287v-750h-92v832h471v-832z"/>
<glyph glyph-name="summation" horiz-adv-x="486" unicode="∑" d="M451 631h-314l200 -338l-200 -332h314v-81h-416v81l203 332l-203 338v81h416v-81z"/>
<glyph glyph-name="minus" horiz-adv-x="566" unicode="−" d="M495 280h-424v73h424v-73z"/>
<glyph glyph-name="radical" horiz-adv-x="575" unicode="√" d="M317 -120h-114l-96 408h-82v72h141l95 -397h2l213 749h79z"/>
<glyph glyph-name="infinity" horiz-adv-x="629" unicode="∞" d="M466 227q35 0 55 21.5t20 59.5t-20 59.5t-55 21.5q-33 0 -58.5 -21t-53.5 -60q28 -39 53.5 -60t58.5 -21zM163 227q33 0 58 20.5t54 60.5q-29 40 -54 60.5t-58 20.5q-36 0 -55.5 -21.5t-19.5 -59.5t19.5 -59.5t55.5 -21.5zM474 460q62 0 101 -42t39 -110t-39 -110 t-101 -42q-53 0 -89.5 25.5t-70.5 70.5q-33 -45 -70 -70.5t-89 -25.5q-63 0 -101.5 42t-38.5 110t38.5 110t101.5 42q52 0 89 -25.5t70 -70.5q34 45 70.5 70.5t89.5 25.5z"/>
<glyph glyph-name="approxequal" horiz-adv-x="566" unicode="≈" d="M188 301q37 0 71.5 -22.5t63.5 -44.5t54 -22q28 0 44 20.5t16 55.5h63q0 -66 -33 -106.5t-89 -40.5q-37 0 -71 22.5t-63.5 45t-54.5 22.5q-28 0 -44 -21t-16 -56h-63q0 66 33 106.5t89 40.5zM188 493q30 0 58 -14t46.5 -31t41.5 -31t43 -14q28 0 44 21t16 56h63 q0 -66 -33 -106.5t-89 -40.5q-37 0 -71 22.5t-63.5 44.5t-54.5 22q-28 0 -44 -20.5t-16 -55.5h-63q0 66 33 106.5t89 40.5z"/>
<glyph glyph-name="notequal" horiz-adv-x="566" unicode="≠" d="M350 362l-58 -91h203v-74h-249l-80 -127h-75l80 127h-100v74h146l57 91h-203v74h249l80 127h76l-80 -127h99v-74h-145z"/>
<glyph glyph-name="lessequal" horiz-adv-x="566" unicode="≤" d="M495 72v-72h-424v72h424zM495 463l-342 -135v-2l342 -135v-77l-424 166v95l424 165v-77z"/>
<glyph glyph-name="greaterequal" horiz-adv-x="566" unicode="≥" d="M495 0h-424v72h424v-72zM495 375v-95l-424 -166v77l342 135v2l-342 135v77z"/>
<glyph glyph-name="lozenge" horiz-adv-x="597" unicode="◊" d="M131 356l168 -292l167 292l-167 292zM557 356l-201 -356h-115l-201 356l201 356h115z"/>
</font>
</defs>
</svg>
